<?xml version="1.0" encoding="UTF-8" standalone="no"?>
<!DOCTYPE svg PUBLIC "-//W3C//DTD SVG 1.1//EN"
 "http://www.w3.org/Graphics/SVG/1.1/DTD/svg11.dtd">
<!-- Generated by graphviz version 2.38.0 (20140413.2041)
 -->
<!-- Title: G Pages: 1 -->
<svg width="421pt" height="528pt"
 viewBox="0.00 0.00 420.59 528.00" xmlns="http://www.w3.org/2000/svg" xmlns:xlink="http://www.w3.org/1999/xlink">
<g id="graph0" class="graph" transform="scale(1 1) rotate(0) translate(4 524)">
<title>G</title>
<polygon fill="white" stroke="none" points="-4,4 -4,-524 416.588,-524 416.588,4 -4,4"/>
<g id="clust1" class="cluster"><title>cluster_Global</title>
<path fill="none" stroke="gray" d="M208.588,-8C208.588,-8 392.588,-8 392.588,-8 398.588,-8 404.588,-14 404.588,-20 404.588,-20 404.588,-500 404.588,-500 404.588,-506 398.588,-512 392.588,-512 392.588,-512 208.588,-512 208.588,-512 202.588,-512 196.588,-506 196.588,-500 196.588,-500 196.588,-20 196.588,-20 196.588,-14 202.588,-8 208.588,-8"/>
<text text-anchor="middle" x="300.588" y="-499.2" font-family="Times,serif" font-size="11.00" fill="gray">Global</text>
</g>
<!-- \\Kilpailu -->
<g id="node1" class="node"><title>\\Kilpailu</title>
<polygon fill="none" stroke="black" points="336.088,-430 265.088,-430 265.088,-394 336.088,-394 336.088,-430"/>
<text text-anchor="middle" x="300.588" y="-409.2" font-family="Courier,monospace" font-size="11.00">Kilpailu</text>
</g>
<!-- \\BaseModel -->
<g id="node10" class="node"><title>\\BaseModel</title>
<ellipse fill="none" stroke="black" cx="66.2941" cy="-385" rx="53.8905" ry="18"/>
<text text-anchor="middle" x="66.2941" y="-381.3" font-family="Times,serif" font-size="14.00" fill="gray">\BaseModel</text>
</g>
<!-- \\Kilpailu&#45;&gt;\\BaseModel -->
<g id="edge1" class="edge"><title>\\Kilpailu&#45;&gt;\\BaseModel</title>
<path fill="none" stroke="black" d="M265.062,-407.987C228.831,-403.776 171.173,-397.074 127.441,-391.991"/>
<polygon fill="none" stroke="black" points="127.828,-388.513 117.491,-390.835 127.02,-395.466 127.828,-388.513"/>
</g>
<!-- \\Kilpailun_sarja -->
<g id="node2" class="node"><title>\\Kilpailun_sarja</title>
<polygon fill="none" stroke="black" points="359.588,-376 241.588,-376 241.588,-340 359.588,-340 359.588,-376"/>
<text text-anchor="middle" x="300.588" y="-355.2" font-family="Courier,monospace" font-size="11.00">Kilpailun_sarja</text>
</g>
<!-- \\Kilpailun_sarja&#45;&gt;\\BaseModel -->
<g id="edge2" class="edge"><title>\\Kilpailun_sarja&#45;&gt;\\BaseModel</title>
<path fill="none" stroke="black" d="M241.57,-364.744C206.834,-368.781 162.752,-373.905 127.615,-377.989"/>
<polygon fill="none" stroke="black" points="127.017,-374.535 117.488,-379.166 127.826,-381.488 127.017,-374.535"/>
</g>
<!-- \\Sarjan_osallistuja -->
<g id="node3" class="node"><title>\\Sarjan_osallistuja</title>
<polygon fill="none" stroke="black" points="369.588,-322 231.588,-322 231.588,-286 369.588,-286 369.588,-322"/>
<text text-anchor="middle" x="300.588" y="-301.2" font-family="Courier,monospace" font-size="11.00">Sarjan_osallistuja</text>
</g>
<!-- \\Sarjan_osallistuja&#45;&gt;\\BaseModel -->
<g id="edge3" class="edge"><title>\\Sarjan_osallistuja&#45;&gt;\\BaseModel</title>
<path fill="none" stroke="black" d="M231.32,-320.463C219.65,-323.685 207.709,-327.241 196.588,-331 166.346,-341.224 133.132,-355.156 107.941,-366.308"/>
<polygon fill="none" stroke="black" points="106.407,-363.16 98.7023,-370.433 109.26,-369.552 106.407,-363.16"/>
</g>
<!-- \\kilpailija_controller -->
<g id="node4" class="node"><title>\\kilpailija_controller</title>
<polygon fill="none" stroke="black" points="379.588,-106 221.588,-106 221.588,-70 379.588,-70 379.588,-106"/>
<text text-anchor="middle" x="300.588" y="-85.2" font-family="Courier,monospace" font-size="11.00">kilpailija_controller</text>
</g>
<!-- \\BaseController -->
<g id="node11" class="node"><title>\\BaseController</title>
<ellipse fill="none" stroke="black" cx="66.2941" cy="-142" rx="66.0889" ry="18"/>
<text text-anchor="middle" x="66.2941" y="-138.3" font-family="Times,serif" font-size="14.00" fill="gray">\BaseController</text>
</g>
<!-- \\kilpailija_controller&#45;&gt;\\BaseController -->
<g id="edge4" class="edge"><title>\\kilpailija_controller&#45;&gt;\\BaseController</title>
<path fill="none" stroke="black" d="M221.915,-106.056C191.003,-113.242 155.993,-121.381 127.113,-128.094"/>
<polygon fill="none" stroke="black" points="126.118,-124.732 117.17,-130.406 127.703,-131.55 126.118,-124.732"/>
</g>
<!-- \\kilpailun_sarja_controller -->
<g id="node5" class="node"><title>\\kilpailun_sarja_controller</title>
<polygon fill="none" stroke="black" points="396.588,-52 204.588,-52 204.588,-16 396.588,-16 396.588,-52"/>
<text text-anchor="middle" x="300.588" y="-31.2" font-family="Courier,monospace" font-size="11.00">kilpailun_sarja_controller</text>
</g>
<!-- \\kilpailun_sarja_controller&#45;&gt;\\BaseController -->
<g id="edge5" class="edge"><title>\\kilpailun_sarja_controller&#45;&gt;\\BaseController</title>
<path fill="none" stroke="black" d="M220.579,-52.0635C212.358,-54.7246 204.224,-57.6992 196.588,-61 160.919,-76.4187 123.671,-100.766 98.3678,-118.745"/>
<polygon fill="none" stroke="black" points="96.0087,-116.131 89.9379,-124.814 100.099,-121.812 96.0087,-116.131"/>
</g>
<!-- \\kilpailu_controller -->
<g id="node6" class="node"><title>\\kilpailu_controller</title>
<polygon fill="none" stroke="black" points="373.088,-268 228.088,-268 228.088,-232 373.088,-232 373.088,-268"/>
<text text-anchor="middle" x="300.588" y="-247.2" font-family="Courier,monospace" font-size="11.00">kilpailu_controller</text>
</g>
<!-- \\kilpailu_controller&#45;&gt;\\BaseController -->
<g id="edge6" class="edge"><title>\\kilpailu_controller&#45;&gt;\\BaseController</title>
<path fill="none" stroke="black" d="M227.99,-234.247C217.283,-231.031 206.515,-227.291 196.588,-223 160.919,-207.581 123.671,-183.234 98.3678,-165.255"/>
<polygon fill="none" stroke="black" points="100.099,-162.188 89.9379,-159.186 96.0087,-167.869 100.099,-162.188"/>
</g>
<!-- \\login_controller -->
<g id="node7" class="node"><title>\\login_controller</title>
<polygon fill="none" stroke="black" points="363.088,-214 238.088,-214 238.088,-178 363.088,-178 363.088,-214"/>
<text text-anchor="middle" x="300.588" y="-193.2" font-family="Courier,monospace" font-size="11.00">login_controller</text>
</g>
<!-- \\login_controller&#45;&gt;\\BaseController -->
<g id="edge7" class="edge"><title>\\login_controller&#45;&gt;\\BaseController</title>
<path fill="none" stroke="black" d="M237.948,-181.671C203.571,-173.68 160.957,-163.773 126.912,-155.859"/>
<polygon fill="none" stroke="black" points="127.63,-152.433 117.097,-153.577 126.045,-159.251 127.63,-152.433"/>
</g>
<!-- \\Kilpailija -->
<g id="node8" class="node"><title>\\Kilpailija</title>
<polygon fill="none" stroke="black" points="342.588,-484 258.588,-484 258.588,-448 342.588,-448 342.588,-484"/>
<text text-anchor="middle" x="300.588" y="-463.2" font-family="Courier,monospace" font-size="11.00">Kilpailija</text>
</g>
<!-- \\Kilpailija&#45;&gt;\\BaseModel -->
<g id="edge8" class="edge"><title>\\Kilpailija&#45;&gt;\\BaseModel</title>
<path fill="none" stroke="black" d="M258.1,-456.524C239.161,-451.841 216.552,-445.749 196.588,-439 166.346,-428.776 133.132,-414.844 107.941,-403.692"/>
<polygon fill="none" stroke="black" points="109.26,-400.448 98.7023,-399.567 106.407,-406.84 109.26,-400.448"/>
</g>
<!-- \\yllapitajan_controller -->
<g id="node9" class="node"><title>\\yllapitajan_controller</title>
<polygon fill="none" stroke="black" points="383.088,-160 218.088,-160 218.088,-124 383.088,-124 383.088,-160"/>
<text text-anchor="middle" x="300.588" y="-139.2" font-family="Courier,monospace" font-size="11.00">yllapitajan_controller</text>
</g>
<!-- \\yllapitajan_controller&#45;&gt;\\BaseController -->
<g id="edge9" class="edge"><title>\\yllapitajan_controller&#45;&gt;\\BaseController</title>
<path fill="none" stroke="black" d="M218.017,-142C193.538,-142 166.804,-142 142.739,-142"/>
<polygon fill="none" stroke="black" points="142.603,-138.5 132.603,-142 142.603,-145.5 142.603,-138.5"/>
</g>
</g>
</svg>
