<?xml version="1.0" encoding="UTF-8" standalone="no"?>
<!DOCTYPE svg PUBLIC "-//W3C//DTD SVG 1.1//EN"
 "http://www.w3.org/Graphics/SVG/1.1/DTD/svg11.dtd">
<!-- Generated by graphviz version 2.38.0 (20140413.2041)
 -->
<!-- Title: G Pages: 1 -->
<svg width="421pt" height="582pt"
 viewBox="0.00 0.00 420.59 582.00" xmlns="http://www.w3.org/2000/svg" xmlns:xlink="http://www.w3.org/1999/xlink">
<g id="graph0" class="graph" transform="scale(1 1) rotate(0) translate(4 578)">
<title>G</title>
<polygon fill="white" stroke="none" points="-4,4 -4,-578 416.588,-578 416.588,4 -4,4"/>
<g id="clust1" class="cluster"><title>cluster_Global</title>
<path fill="none" stroke="gray" d="M208.588,-8C208.588,-8 392.588,-8 392.588,-8 398.588,-8 404.588,-14 404.588,-20 404.588,-20 404.588,-554 404.588,-554 404.588,-560 398.588,-566 392.588,-566 392.588,-566 208.588,-566 208.588,-566 202.588,-566 196.588,-560 196.588,-554 196.588,-554 196.588,-20 196.588,-20 196.588,-14 202.588,-8 208.588,-8"/>
<text text-anchor="middle" x="300.588" y="-553.2" font-family="Times,serif" font-size="11.00" fill="gray">Global</text>
</g>
<!-- \\Kilpailun_sarja -->
<g id="node1" class="node"><title>\\Kilpailun_sarja</title>
<polygon fill="none" stroke="black" points="359.588,-538 241.588,-538 241.588,-502 359.588,-502 359.588,-538"/>
<text text-anchor="middle" x="300.588" y="-517.2" font-family="Courier,monospace" font-size="11.00">Kilpailun_sarja</text>
</g>
<!-- \\BaseModel -->
<g id="node11" class="node"><title>\\BaseModel</title>
<ellipse fill="none" stroke="black" cx="66.2941" cy="-439" rx="53.8905" ry="18"/>
<text text-anchor="middle" x="66.2941" y="-435.3" font-family="Times,serif" font-size="14.00" fill="gray">\BaseModel</text>
</g>
<!-- \\Kilpailun_sarja&#45;&gt;\\BaseModel -->
<g id="edge1" class="edge"><title>\\Kilpailun_sarja&#45;&gt;\\BaseModel</title>
<path fill="none" stroke="black" d="M241.424,-506.264C226.677,-502.369 210.948,-497.855 196.588,-493 166.346,-482.776 133.132,-468.844 107.941,-457.692"/>
<polygon fill="none" stroke="black" points="109.26,-454.448 98.7023,-453.567 106.407,-460.84 109.26,-454.448"/>
</g>
<!-- \\Kilpailu -->
<g id="node2" class="node"><title>\\Kilpailu</title>
<polygon fill="none" stroke="black" points="336.088,-484 265.088,-484 265.088,-448 336.088,-448 336.088,-484"/>
<text text-anchor="middle" x="300.588" y="-463.2" font-family="Courier,monospace" font-size="11.00">Kilpailu</text>
</g>
<!-- \\Kilpailu&#45;&gt;\\BaseModel -->
<g id="edge2" class="edge"><title>\\Kilpailu&#45;&gt;\\BaseModel</title>
<path fill="none" stroke="black" d="M265.062,-461.987C228.831,-457.776 171.173,-451.074 127.441,-445.991"/>
<polygon fill="none" stroke="black" points="127.828,-442.513 117.491,-444.835 127.02,-449.466 127.828,-442.513"/>
</g>
<!-- \\Kilpailija -->
<g id="node3" class="node"><title>\\Kilpailija</title>
<polygon fill="none" stroke="black" points="342.588,-430 258.588,-430 258.588,-394 342.588,-394 342.588,-430"/>
<text text-anchor="middle" x="300.588" y="-409.2" font-family="Courier,monospace" font-size="11.00">Kilpailija</text>
</g>
<!-- \\Kilpailija&#45;&gt;\\BaseModel -->
<g id="edge3" class="edge"><title>\\Kilpailija&#45;&gt;\\BaseModel</title>
<path fill="none" stroke="black" d="M258.326,-416.796C222.029,-421.015 168.722,-427.211 127.636,-431.986"/>
<polygon fill="none" stroke="black" points="127.001,-428.537 117.472,-433.168 127.809,-435.49 127.001,-428.537"/>
</g>
<!-- \\Sarjan_osallistuja -->
<g id="node4" class="node"><title>\\Sarjan_osallistuja</title>
<polygon fill="none" stroke="black" points="369.588,-376 231.588,-376 231.588,-340 369.588,-340 369.588,-376"/>
<text text-anchor="middle" x="300.588" y="-355.2" font-family="Courier,monospace" font-size="11.00">Sarjan_osallistuja</text>
</g>
<!-- \\Sarjan_osallistuja&#45;&gt;\\BaseModel -->
<g id="edge4" class="edge"><title>\\Sarjan_osallistuja&#45;&gt;\\BaseModel</title>
<path fill="none" stroke="black" d="M231.32,-374.463C219.65,-377.685 207.709,-381.241 196.588,-385 166.346,-395.224 133.132,-409.156 107.941,-420.308"/>
<polygon fill="none" stroke="black" points="106.407,-417.16 98.7023,-424.433 109.26,-423.552 106.407,-417.16"/>
</g>
<!-- \\Kilpailu_controller -->
<g id="node5" class="node"><title>\\Kilpailu_controller</title>
<polygon fill="none" stroke="black" points="373.088,-322 228.088,-322 228.088,-286 373.088,-286 373.088,-322"/>
<text text-anchor="middle" x="300.588" y="-301.2" font-family="Courier,monospace" font-size="11.00">Kilpailu_controller</text>
</g>
<!-- \\BaseController -->
<g id="node12" class="node"><title>\\BaseController</title>
<ellipse fill="none" stroke="black" cx="66.2941" cy="-169" rx="66.0889" ry="18"/>
<text text-anchor="middle" x="66.2941" y="-165.3" font-family="Times,serif" font-size="14.00" fill="gray">\BaseController</text>
</g>
<!-- \\Kilpailu_controller&#45;&gt;\\BaseController -->
<g id="edge5" class="edge"><title>\\Kilpailu_controller&#45;&gt;\\BaseController</title>
<path fill="none" stroke="black" d="M227.973,-289.609C217.16,-286.198 206.364,-282.041 196.588,-277 154.891,-255.497 114.686,-218.539 90.473,-193.936"/>
<polygon fill="none" stroke="black" points="92.9608,-191.474 83.4882,-186.728 87.9338,-196.345 92.9608,-191.474"/>
</g>
<!-- \\yleisetNakymat_controller -->
<g id="node6" class="node"><title>\\yleisetNakymat_controller</title>
<polygon fill="none" stroke="black" points="393.088,-268 208.088,-268 208.088,-232 393.088,-232 393.088,-268"/>
<text text-anchor="middle" x="300.588" y="-247.2" font-family="Courier,monospace" font-size="11.00">yleisetNakymat_controller</text>
</g>
<!-- \\yleisetNakymat_controller&#45;&gt;\\BaseController -->
<g id="edge6" class="edge"><title>\\yleisetNakymat_controller&#45;&gt;\\BaseController</title>
<path fill="none" stroke="black" d="M225.79,-231.99C215.909,-229.19 205.957,-226.167 196.588,-223 167.163,-213.052 134.925,-199.594 110.001,-188.602"/>
<polygon fill="none" stroke="black" points="111.387,-185.388 100.828,-184.522 108.543,-191.784 111.387,-185.388"/>
</g>
<!-- \\HelloWorldController -->
<g id="node7" class="node"><title>\\HelloWorldController</title>
<polygon fill="none" stroke="black" points="376.588,-214 224.588,-214 224.588,-178 376.588,-178 376.588,-214"/>
<text text-anchor="middle" x="300.588" y="-193.2" font-family="Courier,monospace" font-size="11.00">HelloWorldController</text>
</g>
<!-- \\HelloWorldController&#45;&gt;\\BaseController -->
<g id="edge7" class="edge"><title>\\HelloWorldController&#45;&gt;\\BaseController</title>
<path fill="none" stroke="black" d="M224.49,-187.271C196.51,-184.019 164.884,-180.343 137.372,-177.145"/>
<polygon fill="none" stroke="black" points="137.774,-173.669 127.437,-175.991 136.966,-180.622 137.774,-173.669"/>
</g>
<!-- \\Kilpailija_controller -->
<g id="node8" class="node"><title>\\Kilpailija_controller</title>
<polygon fill="none" stroke="black" points="379.588,-160 221.588,-160 221.588,-124 379.588,-124 379.588,-160"/>
<text text-anchor="middle" x="300.588" y="-139.2" font-family="Courier,monospace" font-size="11.00">Kilpailija_controller</text>
</g>
<!-- \\Kilpailija_controller&#45;&gt;\\BaseController -->
<g id="edge8" class="edge"><title>\\Kilpailija_controller&#45;&gt;\\BaseController</title>
<path fill="none" stroke="black" d="M221.268,-151.103C194.291,-154.239 164.258,-157.73 137.931,-160.79"/>
<polygon fill="none" stroke="black" points="137.188,-157.352 127.659,-161.984 137.996,-164.306 137.188,-157.352"/>
</g>
<!-- \\LoginController -->
<g id="node9" class="node"><title>\\LoginController</title>
<polygon fill="none" stroke="black" points="359.588,-106 241.588,-106 241.588,-70 359.588,-70 359.588,-106"/>
<text text-anchor="middle" x="300.588" y="-85.2" font-family="Courier,monospace" font-size="11.00">LoginController</text>
</g>
<!-- \\LoginController&#45;&gt;\\BaseController -->
<g id="edge9" class="edge"><title>\\LoginController&#45;&gt;\\BaseController</title>
<path fill="none" stroke="black" d="M241.424,-101.736C226.677,-105.631 210.948,-110.145 196.588,-115 167.163,-124.948 134.925,-138.406 110.001,-149.398"/>
<polygon fill="none" stroke="black" points="108.543,-146.216 100.828,-153.478 111.387,-152.612 108.543,-146.216"/>
</g>
<!-- \\Kilpailun_sarja_controller -->
<g id="node10" class="node"><title>\\Kilpailun_sarja_controller</title>
<polygon fill="none" stroke="black" points="396.588,-52 204.588,-52 204.588,-16 396.588,-16 396.588,-52"/>
<text text-anchor="middle" x="300.588" y="-31.2" font-family="Courier,monospace" font-size="11.00">Kilpailun_sarja_controller</text>
</g>
<!-- \\Kilpailun_sarja_controller&#45;&gt;\\BaseController -->
<g id="edge10" class="edge"><title>\\Kilpailun_sarja_controller&#45;&gt;\\BaseController</title>
<path fill="none" stroke="black" d="M217.113,-52.0888C210.017,-54.6963 203.078,-57.6531 196.588,-61 154.891,-82.5034 114.686,-119.461 90.473,-144.064"/>
<polygon fill="none" stroke="black" points="87.9338,-141.655 83.4882,-151.272 92.9608,-146.526 87.9338,-141.655"/>
</g>
</g>
</svg>
