<?xml version="1.0" encoding="UTF-8" standalone="no"?>
<!DOCTYPE svg PUBLIC "-//W3C//DTD SVG 1.1//EN"
 "http://www.w3.org/Graphics/SVG/1.1/DTD/svg11.dtd">
<!-- Generated by graphviz version 2.38.0 (20140413.2041)
 -->
<!-- Title: G Pages: 1 -->
<svg width="421pt" height="564pt"
 viewBox="0.00 0.00 420.59 564.00" xmlns="http://www.w3.org/2000/svg" xmlns:xlink="http://www.w3.org/1999/xlink">
<g id="graph0" class="graph" transform="scale(1 1) rotate(0) translate(4 560)">
<title>G</title>
<polygon fill="white" stroke="none" points="-4,4 -4,-560 416.588,-560 416.588,4 -4,4"/>
<g id="clust1" class="cluster"><title>cluster_Global</title>
<path fill="none" stroke="gray" d="M31.7941,-44C31.7941,-44 392.588,-44 392.588,-44 398.588,-44 404.588,-50 404.588,-56 404.588,-56 404.588,-536 404.588,-536 404.588,-542 398.588,-548 392.588,-548 392.588,-548 31.7941,-548 31.7941,-548 25.7941,-548 19.7941,-542 19.7941,-536 19.7941,-536 19.7941,-56 19.7941,-56 19.7941,-50 25.7941,-44 31.7941,-44"/>
<text text-anchor="middle" x="212.191" y="-535.2" font-family="Times,serif" font-size="11.00" fill="gray">Global</text>
</g>
<!-- \\BaseModel -->
<g id="node1" class="node"><title>\\BaseModel</title>
<polygon fill="none" stroke="black" points="104.794,-439 27.7941,-439 27.7941,-403 104.794,-403 104.794,-439"/>
<text text-anchor="middle" x="66.2941" y="-418.2" font-family="Courier,monospace" font-size="11.00">BaseModel</text>
</g>
<!-- \\Kilpailija -->
<g id="node2" class="node"><title>\\Kilpailija</title>
<polygon fill="none" stroke="black" points="342.588,-520 258.588,-520 258.588,-484 342.588,-484 342.588,-520"/>
<text text-anchor="middle" x="300.588" y="-499.2" font-family="Courier,monospace" font-size="11.00">Kilpailija</text>
</g>
<!-- \\Kilpailija&#45;&gt;\\BaseModel -->
<g id="edge1" class="edge"><title>\\Kilpailija&#45;&gt;\\BaseModel</title>
<path fill="none" stroke="black" d="M258.168,-491.176C241.417,-486.553 221.969,-480.872 204.588,-475 174.116,-464.705 140.502,-451.516 114.162,-440.75"/>
<polygon fill="none" stroke="black" points="115.386,-437.469 104.806,-436.903 112.724,-443.943 115.386,-437.469"/>
</g>
<!-- \\Kilpailun_sarja -->
<g id="node3" class="node"><title>\\Kilpailun_sarja</title>
<polygon fill="none" stroke="black" points="359.588,-466 241.588,-466 241.588,-430 359.588,-430 359.588,-466"/>
<text text-anchor="middle" x="300.588" y="-445.2" font-family="Courier,monospace" font-size="11.00">Kilpailun_sarja</text>
</g>
<!-- \\Kilpailun_sarja&#45;&gt;\\BaseModel -->
<g id="edge2" class="edge"><title>\\Kilpailun_sarja&#45;&gt;\\BaseModel</title>
<path fill="none" stroke="black" d="M241.57,-441.256C202.509,-436.716 151.629,-430.802 114.94,-426.538"/>
<polygon fill="none" stroke="black" points="115.327,-423.059 104.99,-425.381 114.519,-430.013 115.327,-423.059"/>
</g>
<!-- \\Kilpailu -->
<g id="node4" class="node"><title>\\Kilpailu</title>
<polygon fill="none" stroke="black" points="336.088,-412 265.088,-412 265.088,-376 336.088,-376 336.088,-412"/>
<text text-anchor="middle" x="300.588" y="-391.2" font-family="Courier,monospace" font-size="11.00">Kilpailu</text>
</g>
<!-- \\Kilpailu&#45;&gt;\\BaseModel -->
<g id="edge3" class="edge"><title>\\Kilpailu&#45;&gt;\\BaseModel</title>
<path fill="none" stroke="black" d="M265.062,-398.013C225.313,-402.633 159.776,-410.251 115.129,-415.44"/>
<polygon fill="none" stroke="black" points="114.627,-411.975 105.098,-416.606 115.436,-418.928 114.627,-411.975"/>
</g>
<!-- \\Sarjan_osallistuja -->
<g id="node5" class="node"><title>\\Sarjan_osallistuja</title>
<polygon fill="none" stroke="black" points="369.588,-358 231.588,-358 231.588,-322 369.588,-322 369.588,-358"/>
<text text-anchor="middle" x="300.588" y="-337.2" font-family="Courier,monospace" font-size="11.00">Sarjan_osallistuja</text>
</g>
<!-- \\Sarjan_osallistuja&#45;&gt;\\BaseModel -->
<g id="edge4" class="edge"><title>\\Sarjan_osallistuja&#45;&gt;\\BaseModel</title>
<path fill="none" stroke="black" d="M232.894,-358.062C223.348,-360.906 213.685,-363.927 204.588,-367 174.116,-377.295 140.502,-390.484 114.162,-401.25"/>
<polygon fill="none" stroke="black" points="112.724,-398.057 104.806,-405.097 115.386,-404.531 112.724,-398.057"/>
</g>
<!-- \\kilpailu_controller -->
<g id="node6" class="node"><title>\\kilpailu_controller</title>
<polygon fill="none" stroke="black" points="373.088,-304 228.088,-304 228.088,-268 373.088,-268 373.088,-304"/>
<text text-anchor="middle" x="300.588" y="-283.2" font-family="Courier,monospace" font-size="11.00">kilpailu_controller</text>
</g>
<!-- \\BaseController -->
<g id="node11" class="node"><title>\\BaseController</title>
<ellipse fill="none" stroke="black" cx="66.2941" cy="-18" rx="66.0889" ry="18"/>
<text text-anchor="middle" x="66.2941" y="-14.3" font-family="Times,serif" font-size="14.00" fill="gray">\BaseController</text>
</g>
<!-- \\kilpailu_controller&#45;&gt;\\BaseController -->
<g id="edge5" class="edge"><title>\\kilpailu_controller&#45;&gt;\\BaseController</title>
<path fill="none" stroke="black" d="M227.961,-274.075C219.356,-270.321 211.267,-265.412 204.588,-259 130.679,-188.041 204.771,-112.715 132.588,-40 130.745,-38.1429 128.74,-36.4426 126.614,-34.8858"/>
<polygon fill="none" stroke="black" points="128.262,-31.7912 117.904,-29.5645 124.613,-37.7646 128.262,-31.7912"/>
</g>
<!-- \\yllapitajan_controller -->
<g id="node7" class="node"><title>\\yllapitajan_controller</title>
<polygon fill="none" stroke="black" points="383.088,-250 218.088,-250 218.088,-214 383.088,-214 383.088,-250"/>
<text text-anchor="middle" x="300.588" y="-229.2" font-family="Courier,monospace" font-size="11.00">yllapitajan_controller</text>
</g>
<!-- \\yllapitajan_controller&#45;&gt;\\BaseController -->
<g id="edge6" class="edge"><title>\\yllapitajan_controller&#45;&gt;\\BaseController</title>
<path fill="none" stroke="black" d="M217.706,-214.197C213.017,-211.544 208.591,-208.497 204.588,-205 144.337,-152.355 191.557,-94.0783 132.588,-40 130.621,-38.1961 128.501,-36.5394 126.269,-35.0182"/>
<polygon fill="none" stroke="black" points="127.61,-31.7515 117.197,-29.7963 124.118,-37.8183 127.61,-31.7515"/>
</g>
<!-- \\kilpailija_controller -->
<g id="node8" class="node"><title>\\kilpailija_controller</title>
<polygon fill="none" stroke="black" points="379.588,-196 221.588,-196 221.588,-160 379.588,-160 379.588,-196"/>
<text text-anchor="middle" x="300.588" y="-175.2" font-family="Courier,monospace" font-size="11.00">kilpailija_controller</text>
</g>
<!-- \\kilpailija_controller&#45;&gt;\\BaseController -->
<g id="edge7" class="edge"><title>\\kilpailija_controller&#45;&gt;\\BaseController</title>
<path fill="none" stroke="black" d="M221.172,-160.804C215.304,-158.013 209.691,-154.769 204.588,-151 157.288,-116.066 179.036,-76.0614 132.588,-40 130.117,-38.0812 127.469,-36.3249 124.706,-34.7178"/>
<polygon fill="none" stroke="black" points="126.069,-31.4845 115.568,-30.0771 122.899,-37.7258 126.069,-31.4845"/>
</g>
<!-- \\login_controller -->
<g id="node9" class="node"><title>\\login_controller</title>
<polygon fill="none" stroke="black" points="363.088,-142 238.088,-142 238.088,-106 363.088,-106 363.088,-142"/>
<text text-anchor="middle" x="300.588" y="-121.2" font-family="Courier,monospace" font-size="11.00">login_controller</text>
</g>
<!-- \\login_controller&#45;&gt;\\BaseController -->
<g id="edge8" class="edge"><title>\\login_controller&#45;&gt;\\BaseController</title>
<path fill="none" stroke="black" d="M237.926,-110.301C226.534,-106.711 214.966,-102.314 204.588,-97 168.261,-78.3969 168.458,-59.471 132.588,-40 129.293,-38.2113 125.826,-36.5308 122.279,-34.9589"/>
<polygon fill="none" stroke="black" points="123.343,-31.6125 112.763,-31.0515 120.684,-38.0878 123.343,-31.6125"/>
</g>
<!-- \\kilpailun_sarja_controller -->
<g id="node10" class="node"><title>\\kilpailun_sarja_controller</title>
<polygon fill="none" stroke="black" points="396.588,-88 204.588,-88 204.588,-52 396.588,-52 396.588,-88"/>
<text text-anchor="middle" x="300.588" y="-67.2" font-family="Courier,monospace" font-size="11.00">kilpailun_sarja_controller</text>
</g>
<!-- \\kilpailun_sarja_controller&#45;&gt;\\BaseController -->
<g id="edge9" class="edge"><title>\\kilpailun_sarja_controller&#45;&gt;\\BaseController</title>
<path fill="none" stroke="black" d="M218.995,-51.9589C189.118,-45.2708 155.767,-37.8051 127.962,-31.5807"/>
<polygon fill="none" stroke="black" points="128.508,-28.1164 117.985,-29.3474 126.979,-34.9474 128.508,-28.1164"/>
</g>
</g>
</svg>
